<?xml version="1.0" encoding="UTF-8" standalone="no"?>
<!DOCTYPE svg PUBLIC "-//W3C//DTD SVG 1.1//EN"
 "http://www.w3.org/Graphics/SVG/1.1/DTD/svg11.dtd">
<!-- Generated by graphviz version 2.43.0 (0)
 -->
<!-- Title: dependency&#45;cruiser output Pages: 1 -->
<svg width="373pt" height="1087pt"
 viewBox="0.00 0.00 372.50 1087.00" xmlns="http://www.w3.org/2000/svg" xmlns:xlink="http://www.w3.org/1999/xlink">
<g id="graph0" class="graph" transform="scale(1 1) rotate(0) translate(4 1083)">
<title>dependency&#45;cruiser output</title>
<polygon fill="white" stroke="transparent" points="-4,4 -4,-1083 368.5,-1083 368.5,4 -4,4"/>
<g id="clust1" class="cluster">
<title>cluster_.vscode</title>
<path fill="#ffffff" stroke="black" stroke-width="2" d="M39,-56C39,-56 117,-56 117,-56 123,-56 129,-62 129,-68 129,-68 129,-156 129,-156 129,-162 123,-168 117,-168 117,-168 39,-168 39,-168 33,-168 27,-162 27,-156 27,-156 27,-68 27,-68 27,-62 33,-56 39,-56"/>
<text text-anchor="middle" x="78" y="-156.8" font-family="Helvetica,sans-Serif" font-weight="bold" font-size="9.00">.vscode</text>
</g>
<g id="clust2" class="cluster">
<title>cluster_apps</title>
<path fill="#ffffff" stroke="black" stroke-width="2" d="M20,-191C20,-191 344.5,-191 344.5,-191 350.5,-191 356.5,-197 356.5,-203 356.5,-203 356.5,-835 356.5,-835 356.5,-841 350.5,-847 344.5,-847 344.5,-847 20,-847 20,-847 14,-847 8,-841 8,-835 8,-835 8,-203 8,-203 8,-197 14,-191 20,-191"/>
<text text-anchor="middle" x="182.25" y="-835.8" font-family="Helvetica,sans-Serif" font-weight="bold" font-size="9.00">apps</text>
</g>
<g id="clust3" class="cluster">
<title>cluster_apps/home&#45;e2e</title>
<path fill="#ffffff" stroke="black" stroke-width="2" d="M28,-525C28,-525 336,-525 336,-525 342,-525 348,-531 348,-537 348,-537 348,-809 348,-809 348,-815 342,-821 336,-821 336,-821 28,-821 28,-821 22,-821 16,-815 16,-809 16,-809 16,-537 16,-537 16,-531 22,-525 28,-525"/>
<text text-anchor="middle" x="182" y="-809.8" font-family="Helvetica,sans-Serif" font-weight="bold" font-size="9.00">home&#45;e2e</text>
</g>
<g id="clust4" class="cluster">
<title>cluster_apps/home&#45;e2e/src</title>
<path fill="#ffffff" stroke="black" stroke-width="2" d="M36,-649C36,-649 328,-649 328,-649 334,-649 340,-655 340,-661 340,-661 340,-783 340,-783 340,-789 334,-795 328,-795 328,-795 36,-795 36,-795 30,-795 24,-789 24,-783 24,-783 24,-661 24,-661 24,-655 30,-649 36,-649"/>
<text text-anchor="middle" x="182" y="-783.8" font-family="Helvetica,sans-Serif" font-weight="bold" font-size="9.00">src</text>
</g>
<g id="clust5" class="cluster">
<title>cluster_apps/home&#45;e2e/src/fixtures</title>
<path fill="#ffffff" stroke="black" stroke-width="2" d="M44,-717C44,-717 112,-717 112,-717 118,-717 124,-723 124,-729 124,-729 124,-757 124,-757 124,-763 118,-769 112,-769 112,-769 44,-769 44,-769 38,-769 32,-763 32,-757 32,-757 32,-729 32,-729 32,-723 38,-717 44,-717"/>
<text text-anchor="middle" x="78" y="-757.8" font-family="Helvetica,sans-Serif" font-weight="bold" font-size="9.00">fixtures</text>
</g>
<g id="clust6" class="cluster">
<title>cluster_apps/home&#45;e2e/src/integration</title>
<path fill="#ffffff" stroke="black" stroke-width="2" d="M47.5,-657C47.5,-657 108.5,-657 108.5,-657 114.5,-657 120.5,-663 120.5,-669 120.5,-669 120.5,-697 120.5,-697 120.5,-703 114.5,-709 108.5,-709 108.5,-709 47.5,-709 47.5,-709 41.5,-709 35.5,-703 35.5,-697 35.5,-697 35.5,-669 35.5,-669 35.5,-663 41.5,-657 47.5,-657"/>
<text text-anchor="middle" x="78" y="-697.8" font-family="Helvetica,sans-Serif" font-weight="bold" font-size="9.00">integration</text>
</g>
<g id="clust7" class="cluster">
<title>cluster_apps/home&#45;e2e/src/support</title>
<path fill="#ffffff" stroke="black" stroke-width="2" d="M162,-657C162,-657 320,-657 320,-657 326,-657 332,-663 332,-669 332,-669 332,-727 332,-727 332,-733 326,-739 320,-739 320,-739 162,-739 162,-739 156,-739 150,-733 150,-727 150,-727 150,-669 150,-669 150,-663 156,-657 162,-657"/>
<text text-anchor="middle" x="241" y="-727.8" font-family="Helvetica,sans-Serif" font-weight="bold" font-size="9.00">support</text>
</g>
<g id="clust8" class="cluster">
<title>cluster_apps/home</title>
<path fill="#ffffff" stroke="black" stroke-width="2" d="M33,-199C33,-199 336.5,-199 336.5,-199 342.5,-199 348.5,-205 348.5,-211 348.5,-211 348.5,-505 348.5,-505 348.5,-511 342.5,-517 336.5,-517 336.5,-517 33,-517 33,-517 27,-517 21,-511 21,-505 21,-505 21,-211 21,-211 21,-205 27,-199 33,-199"/>
<text text-anchor="middle" x="184.75" y="-505.8" font-family="Helvetica,sans-Serif" font-weight="bold" font-size="9.00">home</text>
</g>
<g id="clust9" class="cluster">
<title>cluster_apps/home/pages</title>
<path fill="#ffffff" stroke="black" stroke-width="2" d="M162.5,-235C162.5,-235 328.5,-235 328.5,-235 334.5,-235 340.5,-241 340.5,-247 340.5,-247 340.5,-305 340.5,-305 340.5,-311 334.5,-317 328.5,-317 328.5,-317 162.5,-317 162.5,-317 156.5,-317 150.5,-311 150.5,-305 150.5,-305 150.5,-247 150.5,-247 150.5,-241 156.5,-235 162.5,-235"/>
<text text-anchor="middle" x="245.5" y="-305.8" font-family="Helvetica,sans-Serif" font-weight="bold" font-size="9.00">pages</text>
</g>
<g id="clust10" class="cluster">
<title>cluster_apps/home/specs</title>
<path fill="#ffffff" stroke="black" stroke-width="2" d="M41,-293C41,-293 115,-293 115,-293 121,-293 127,-299 127,-305 127,-305 127,-333 127,-333 127,-339 121,-345 115,-345 115,-345 41,-345 41,-345 35,-345 29,-339 29,-333 29,-333 29,-305 29,-305 29,-299 35,-293 41,-293"/>
<text text-anchor="middle" x="78" y="-333.8" font-family="Helvetica,sans-Serif" font-weight="bold" font-size="9.00">specs</text>
</g>
<g id="clust11" class="cluster">
<title>cluster_node_modules</title>
<path fill="#ffffff" stroke="black" stroke-width="2" d="M244.5,-41C244.5,-41 325.5,-41 325.5,-41 331.5,-41 337.5,-47 337.5,-53 337.5,-53 337.5,-171 337.5,-171 337.5,-177 331.5,-183 325.5,-183 325.5,-183 244.5,-183 244.5,-183 238.5,-183 232.5,-177 232.5,-171 232.5,-171 232.5,-53 232.5,-53 232.5,-47 238.5,-41 244.5,-41"/>
<text text-anchor="middle" x="285" y="-171.8" font-family="Helvetica,sans-Serif" font-weight="bold" font-size="9.00">node_modules</text>
</g>
<g id="clust12" class="cluster">
<title>cluster_tools</title>
<path fill="#ffffff" stroke="black" stroke-width="2" d="M33,-971C33,-971 123,-971 123,-971 129,-971 135,-977 135,-983 135,-983 135,-1011 135,-1011 135,-1017 129,-1023 123,-1023 123,-1023 33,-1023 33,-1023 27,-1023 21,-1017 21,-1011 21,-1011 21,-983 21,-983 21,-977 27,-971 33,-971"/>
<text text-anchor="middle" x="78" y="-1011.8" font-family="Helvetica,sans-Serif" font-weight="bold" font-size="9.00">tools</text>
</g>
<!-- .dependency&#45;cruiser.js -->
<g id="node1" class="node">
<title>.dependency&#45;cruiser.js</title>
<g id="a_node1"><a xlink:href="https://github.com/drkstr101/waweb2/blob/main/.dependency-cruiser.js" xlink:title=".dependency&#45;cruiser.js">
<path fill="#ccffcc" stroke="black" d="M131.5,-18C131.5,-18 24.5,-18 24.5,-18 21.5,-18 18.5,-15 18.5,-12 18.5,-12 18.5,-6 18.5,-6 18.5,-3 21.5,0 24.5,0 24.5,0 131.5,0 131.5,0 134.5,0 137.5,-3 137.5,-6 137.5,-6 137.5,-12 137.5,-12 137.5,-15 134.5,-18 131.5,-18"/>
<text text-anchor="middle" x="78" y="-6.8" font-family="Helvetica,sans-Serif" font-size="9.00">.dependency&#45;cruiser.js</text>
</a>
</g>
</g>
<!-- .eslintrc.json -->
<g id="node2" class="node">
<title>.eslintrc.json</title>
<g id="a_node2"><a xlink:href="https://github.com/drkstr101/waweb2/blob/main/.eslintrc.json" xlink:title=".eslintrc.json">
<path fill="#ccffcc" stroke="black" d="M109,-48C109,-48 47,-48 47,-48 44,-48 41,-45 41,-42 41,-42 41,-36 41,-36 41,-33 44,-30 47,-30 47,-30 109,-30 109,-30 112,-30 115,-33 115,-36 115,-36 115,-42 115,-42 115,-45 112,-48 109,-48"/>
<text text-anchor="middle" x="78" y="-36.8" font-family="Helvetica,sans-Serif" font-size="9.00">.eslintrc.json</text>
</a>
</g>
</g>
<!-- .vscode/extensions.json -->
<g id="node3" class="node">
<title>.vscode/extensions.json</title>
<g id="a_node3"><a xlink:href="https://github.com/drkstr101/waweb2/blob/main/.vscode/extensions.json" xlink:title="extensions.json">
<path fill="#ccffcc" stroke="black" d="M115,-142C115,-142 41,-142 41,-142 38,-142 35,-139 35,-136 35,-136 35,-130 35,-130 35,-127 38,-124 41,-124 41,-124 115,-124 115,-124 118,-124 121,-127 121,-130 121,-130 121,-136 121,-136 121,-139 118,-142 115,-142"/>
<text text-anchor="start" x="43" y="-130.8" font-family="Helvetica,sans-Serif" font-size="9.00">extensions.json</text>
</a>
</g>
</g>
<!-- .vscode/launch.json -->
<g id="node4" class="node">
<title>.vscode/launch.json</title>
<g id="a_node4"><a xlink:href="https://github.com/drkstr101/waweb2/blob/main/.vscode/launch.json" xlink:title="launch.json">
<path fill="#ccffcc" stroke="black" d="M106,-112C106,-112 50,-112 50,-112 47,-112 44,-109 44,-106 44,-106 44,-100 44,-100 44,-97 47,-94 50,-94 50,-94 106,-94 106,-94 109,-94 112,-97 112,-100 112,-100 112,-106 112,-106 112,-109 109,-112 106,-112"/>
<text text-anchor="start" x="52" y="-100.8" font-family="Helvetica,sans-Serif" font-size="9.00">launch.json</text>
</a>
</g>
</g>
<!-- .vscode/settings.json -->
<g id="node5" class="node">
<title>.vscode/settings.json</title>
<g id="a_node5"><a xlink:href="https://github.com/drkstr101/waweb2/blob/main/.vscode/settings.json" xlink:title="settings.json">
<path fill="#ccffcc" stroke="black" d="M109,-82C109,-82 47,-82 47,-82 44,-82 41,-79 41,-76 41,-76 41,-70 41,-70 41,-67 44,-64 47,-64 47,-64 109,-64 109,-64 112,-64 115,-67 115,-70 115,-70 115,-76 115,-76 115,-79 112,-82 109,-82"/>
<text text-anchor="start" x="49" y="-70.8" font-family="Helvetica,sans-Serif" font-size="9.00">settings.json</text>
</a>
</g>
</g>
<!-- apps/home&#45;e2e/.eslintrc.json -->
<g id="node6" class="node">
<title>apps/home&#45;e2e/.eslintrc.json</title>
<g id="a_node6"><a xlink:href="https://github.com/drkstr101/waweb2/blob/main/apps/home-e2e/.eslintrc.json" xlink:title=".eslintrc.json">
<path fill="#ccffcc" stroke="black" d="M109,-641C109,-641 47,-641 47,-641 44,-641 41,-638 41,-635 41,-635 41,-629 41,-629 41,-626 44,-623 47,-623 47,-623 109,-623 109,-623 112,-623 115,-626 115,-629 115,-629 115,-635 115,-635 115,-638 112,-641 109,-641"/>
<text text-anchor="middle" x="78" y="-629.8" font-family="Helvetica,sans-Serif" font-size="9.00">.eslintrc.json</text>
</a>
</g>
</g>
<!-- apps/home&#45;e2e/cypress.json -->
<g id="node7" class="node">
<title>apps/home&#45;e2e/cypress.json</title>
<g id="a_node7"><a xlink:href="https://github.com/drkstr101/waweb2/blob/main/apps/home-e2e/cypress.json" xlink:title="cypress.json">
<path fill="#ccffcc" stroke="black" d="M108,-611C108,-611 48,-611 48,-611 45,-611 42,-608 42,-605 42,-605 42,-599 42,-599 42,-596 45,-593 48,-593 48,-593 108,-593 108,-593 111,-593 114,-596 114,-599 114,-599 114,-605 114,-605 114,-608 111,-611 108,-611"/>
<text text-anchor="start" x="50" y="-599.8" font-family="Helvetica,sans-Serif" font-size="9.00">cypress.json</text>
</a>
</g>
</g>
<!-- apps/home&#45;e2e/project.json -->
<g id="node8" class="node">
<title>apps/home&#45;e2e/project.json</title>
<g id="a_node8"><a xlink:href="https://github.com/drkstr101/waweb2/blob/main/apps/home-e2e/project.json" xlink:title="project.json">
<path fill="#ccffcc" stroke="black" d="M106.5,-581C106.5,-581 49.5,-581 49.5,-581 46.5,-581 43.5,-578 43.5,-575 43.5,-575 43.5,-569 43.5,-569 43.5,-566 46.5,-563 49.5,-563 49.5,-563 106.5,-563 106.5,-563 109.5,-563 112.5,-566 112.5,-569 112.5,-569 112.5,-575 112.5,-575 112.5,-578 109.5,-581 106.5,-581"/>
<text text-anchor="start" x="51.5" y="-569.8" font-family="Helvetica,sans-Serif" font-size="9.00">project.json</text>
</a>
</g>
</g>
<!-- apps/home&#45;e2e/src/fixtures/example.json -->
<g id="node9" class="node">
<title>apps/home&#45;e2e/src/fixtures/example.json</title>
<g id="a_node9"><a xlink:href="https://github.com/drkstr101/waweb2/blob/main/apps/home-e2e/src/fixtures/example.json" xlink:title="example.json">
<path fill="#ccffcc" stroke="black" d="M110,-743C110,-743 46,-743 46,-743 43,-743 40,-740 40,-737 40,-737 40,-731 40,-731 40,-728 43,-725 46,-725 46,-725 110,-725 110,-725 113,-725 116,-728 116,-731 116,-731 116,-737 116,-737 116,-740 113,-743 110,-743"/>
<text text-anchor="start" x="48" y="-731.8" font-family="Helvetica,sans-Serif" font-size="9.00">example.json</text>
</a>
</g>
</g>
<!-- apps/home&#45;e2e/src/integration/app.spec.ts -->
<g id="node10" class="node">
<title>apps/home&#45;e2e/src/integration/app.spec.ts</title>
<g id="a_node10"><a xlink:href="https://github.com/drkstr101/waweb2/blob/main/apps/home-e2e/src/integration/app.spec.ts" xlink:title="app.spec.ts">
<path fill="#ddfeff" stroke="black" d="M106.5,-683C106.5,-683 49.5,-683 49.5,-683 46.5,-683 43.5,-680 43.5,-677 43.5,-677 43.5,-671 43.5,-671 43.5,-668 46.5,-665 49.5,-665 49.5,-665 106.5,-665 106.5,-665 109.5,-665 112.5,-668 112.5,-671 112.5,-671 112.5,-677 112.5,-677 112.5,-680 109.5,-683 106.5,-683"/>
<text text-anchor="start" x="51.5" y="-671.8" font-family="Helvetica,sans-Serif" font-size="9.00">app.spec.ts</text>
</a>
</g>
</g>
<!-- apps/home&#45;e2e/src/support/app.po.ts -->
<g id="node11" class="node">
<title>apps/home&#45;e2e/src/support/app.po.ts</title>
<g id="a_node11"><a xlink:href="https://github.com/drkstr101/waweb2/blob/main/apps/home-e2e/src/support/app.po.ts" xlink:title="app.po.ts">
<path fill="#ddfeff" stroke="black" d="M211,-713C211,-713 164,-713 164,-713 161,-713 158,-710 158,-707 158,-707 158,-701 158,-701 158,-698 161,-695 164,-695 164,-695 211,-695 211,-695 214,-695 217,-698 217,-701 217,-701 217,-707 217,-707 217,-710 214,-713 211,-713"/>
<text text-anchor="start" x="166" y="-701.8" font-family="Helvetica,sans-Serif" font-size="9.00">app.po.ts</text>
</a>
</g>
</g>
<!-- apps/home&#45;e2e/src/integration/app.spec.ts&#45;&gt;apps/home&#45;e2e/src/support/app.po.ts -->
<g id="edge1" class="edge">
<title>apps/home&#45;e2e/src/integration/app.spec.ts&#45;&gt;apps/home&#45;e2e/src/support/app.po.ts</title>
<path fill="none" stroke="#000000" stroke-width="2" stroke-opacity="0.200000" d="M78.5,-683.16C78.5,-691.99 78.5,-704 78.5,-704 78.5,-704 151.72,-704 151.72,-704"/>
<polygon fill="#000000" fill-opacity="0.200000" stroke="#000000" stroke-width="2" stroke-opacity="0.200000" points="151.72,-706.1 157.72,-704 151.72,-701.9 151.72,-706.1"/>
</g>
<!-- apps/home&#45;e2e/src/support/commands.ts -->
<g id="node12" class="node">
<title>apps/home&#45;e2e/src/support/commands.ts</title>
<g id="a_node12"><a xlink:href="https://github.com/drkstr101/waweb2/blob/main/apps/home-e2e/src/support/commands.ts" xlink:title="commands.ts">
<path fill="#ddfeff" stroke="black" d="M318,-683C318,-683 252,-683 252,-683 249,-683 246,-680 246,-677 246,-677 246,-671 246,-671 246,-668 249,-665 252,-665 252,-665 318,-665 318,-665 321,-665 324,-668 324,-671 324,-671 324,-677 324,-677 324,-680 321,-683 318,-683"/>
<text text-anchor="start" x="254" y="-671.8" font-family="Helvetica,sans-Serif" font-size="9.00">commands.ts</text>
</a>
</g>
</g>
<!-- apps/home&#45;e2e/src/support/index.ts -->
<g id="node13" class="node">
<title>apps/home&#45;e2e/src/support/index.ts</title>
<g id="a_node13"><a xlink:href="https://github.com/drkstr101/waweb2/blob/main/apps/home-e2e/src/support/index.ts" xlink:title="index.ts">
<path fill="#ddfeff" stroke="black" d="M208.5,-683C208.5,-683 166.5,-683 166.5,-683 163.5,-683 160.5,-680 160.5,-677 160.5,-677 160.5,-671 160.5,-671 160.5,-668 163.5,-665 166.5,-665 166.5,-665 208.5,-665 208.5,-665 211.5,-665 214.5,-668 214.5,-671 214.5,-671 214.5,-677 214.5,-677 214.5,-680 211.5,-683 208.5,-683"/>
<text text-anchor="start" x="169" y="-671.8" font-family="Helvetica,sans-Serif" font-size="9.00">index.ts</text>
</a>
</g>
</g>
<!-- apps/home&#45;e2e/src/support/index.ts&#45;&gt;apps/home&#45;e2e/src/support/commands.ts -->
<g id="edge2" class="edge">
<title>apps/home&#45;e2e/src/support/index.ts&#45;&gt;apps/home&#45;e2e/src/support/commands.ts</title>
<path fill="none" stroke="#000000" stroke-width="2" stroke-opacity="0.200000" d="M214.66,-674C214.66,-674 239.96,-674 239.96,-674"/>
<polygon fill="#000000" fill-opacity="0.200000" stroke="#000000" stroke-width="2" stroke-opacity="0.200000" points="239.96,-676.1 245.96,-674 239.96,-671.9 239.96,-676.1"/>
</g>
<!-- apps/home&#45;e2e/tsconfig.json -->
<g id="node14" class="node">
<title>apps/home&#45;e2e/tsconfig.json</title>
<g id="a_node14"><a xlink:href="https://github.com/drkstr101/waweb2/blob/main/apps/home-e2e/tsconfig.json" xlink:title="tsconfig.json">
<path fill="#ccffcc" stroke="black" d="M109,-551C109,-551 47,-551 47,-551 44,-551 41,-548 41,-545 41,-545 41,-539 41,-539 41,-536 44,-533 47,-533 47,-533 109,-533 109,-533 112,-533 115,-536 115,-539 115,-539 115,-545 115,-545 115,-548 112,-551 109,-551"/>
<text text-anchor="start" x="49" y="-539.8" font-family="Helvetica,sans-Serif" font-size="9.00">tsconfig.json</text>
</a>
</g>
</g>
<!-- apps/home/.eslintrc.json -->
<g id="node15" class="node">
<title>apps/home/.eslintrc.json</title>
<g id="a_node15"><a xlink:href="https://github.com/drkstr101/waweb2/blob/main/apps/home/.eslintrc.json" xlink:title=".eslintrc.json">
<path fill="#ccffcc" stroke="black" d="M109,-461C109,-461 47,-461 47,-461 44,-461 41,-458 41,-455 41,-455 41,-449 41,-449 41,-446 44,-443 47,-443 47,-443 109,-443 109,-443 112,-443 115,-446 115,-449 115,-449 115,-455 115,-455 115,-458 112,-461 109,-461"/>
<text text-anchor="middle" x="78" y="-449.8" font-family="Helvetica,sans-Serif" font-size="9.00">.eslintrc.json</text>
</a>
</g>
</g>
<!-- apps/home/index.d.ts -->
<g id="node16" class="node">
<title>apps/home/index.d.ts</title>
<g id="a_node16"><a xlink:href="https://github.com/drkstr101/waweb2/blob/main/apps/home/index.d.ts" xlink:title="index.d.ts">
<path fill="#ccffcc" stroke="black" d="M103,-431C103,-431 53,-431 53,-431 50,-431 47,-428 47,-425 47,-425 47,-419 47,-419 47,-416 50,-413 53,-413 53,-413 103,-413 103,-413 106,-413 109,-416 109,-419 109,-419 109,-425 109,-425 109,-428 106,-431 103,-431"/>
<text text-anchor="start" x="55" y="-419.8" font-family="Helvetica,sans-Serif" font-size="9.00">index.d.ts</text>
</a>
</g>
</g>
<!-- apps/home/jest.config.js -->
<g id="node17" class="node">
<title>apps/home/jest.config.js</title>
<g id="a_node17"><a xlink:href="https://github.com/drkstr101/waweb2/blob/main/apps/home/jest.config.js" xlink:title="jest.config.js">
<path fill="#ccffcc" stroke="black" d="M109,-401C109,-401 47,-401 47,-401 44,-401 41,-398 41,-395 41,-395 41,-389 41,-389 41,-386 44,-383 47,-383 47,-383 109,-383 109,-383 112,-383 115,-386 115,-389 115,-389 115,-395 115,-395 115,-398 112,-401 109,-401"/>
<text text-anchor="start" x="49" y="-389.8" font-family="Helvetica,sans-Serif" font-size="9.00">jest.config.js</text>
</a>
</g>
</g>
<!-- apps/home/next&#45;env.d.ts -->
<g id="node18" class="node">
<title>apps/home/next&#45;env.d.ts</title>
<g id="a_node18"><a xlink:href="https://github.com/drkstr101/waweb2/blob/main/apps/home/next-env.d.ts" xlink:title="next&#45;env.d.ts">
<path fill="#ddfeff" stroke="black" d="M110,-491C110,-491 46,-491 46,-491 43,-491 40,-488 40,-485 40,-485 40,-479 40,-479 40,-476 43,-473 46,-473 46,-473 110,-473 110,-473 113,-473 116,-476 116,-479 116,-479 116,-485 116,-485 116,-488 113,-491 110,-491"/>
<text text-anchor="start" x="48" y="-479.8" font-family="Helvetica,sans-Serif" font-size="9.00">next&#45;env.d.ts</text>
</a>
</g>
</g>
<!-- node_modules/next -->
<g id="node19" class="node">
<title>node_modules/next</title>
<g id="a_node19"><a xlink:href="https://github.com/drkstr101/waweb2/blob/main/node_modules/next" xlink:title="next">
<polygon fill="#c40b0a" fill-opacity="0.101961" stroke="black" points="312,-157 260,-157 258,-155 258,-139 310,-139 312,-141 312,-157"/>
<polyline fill="none" stroke="black" points="310,-155 258,-155 "/>
<polyline fill="none" stroke="black" points="310,-155 310,-139 "/>
<polyline fill="none" stroke="black" points="310,-155 312,-157 "/>
<text text-anchor="start" x="274.5" y="-145.8" font-family="Helvetica,sans-Serif" font-size="9.00" fill="#c40b0a">next</text>
</a>
</g>
</g>
<!-- apps/home/next&#45;env.d.ts&#45;&gt;node_modules/next -->
<g id="edge3" class="edge">
<title>apps/home/next&#45;env.d.ts&#45;&gt;node_modules/next</title>
<path fill="none" stroke="#000000" stroke-opacity="0.200000" d="M116.15,-482C125.31,-482 132.5,-482 132.5,-482 132.5,-482 132.5,-147 132.5,-147 132.5,-147 251.74,-147 251.74,-147"/>
<polygon fill="#000000" fill-opacity="0.200000" stroke="#000000" stroke-opacity="0.200000" points="251.74,-149.1 257.74,-147 251.74,-144.9 251.74,-149.1"/>
</g>
<!-- apps/home/next.config.js -->
<g id="node20" class="node">
<title>apps/home/next.config.js</title>
<g id="a_node20"><a xlink:href="https://github.com/drkstr101/waweb2/blob/main/apps/home/next.config.js" xlink:title="next.config.js">
<path fill="#ffffcc" stroke="black" d="M111,-371C111,-371 45,-371 45,-371 42,-371 39,-368 39,-365 39,-365 39,-359 39,-359 39,-356 42,-353 45,-353 45,-353 111,-353 111,-353 114,-353 117,-356 117,-359 117,-359 117,-365 117,-365 117,-368 114,-371 111,-371"/>
<text text-anchor="start" x="47" y="-359.8" font-family="Helvetica,sans-Serif" font-size="9.00">next.config.js</text>
</a>
</g>
</g>
<!-- node_modules/@nrwl -->
<g id="node21" class="node">
<title>node_modules/@nrwl</title>
<g id="a_node21"><a xlink:href="https://github.com/drkstr101/waweb2/blob/main/node_modules/@nrwl" xlink:title="@nrwl">
<polygon fill="#c40b0a" fill-opacity="0.101961" stroke="black" points="312,-67 260,-67 258,-65 258,-49 310,-49 312,-51 312,-67"/>
<polyline fill="none" stroke="black" points="310,-65 258,-65 "/>
<polyline fill="none" stroke="black" points="310,-65 310,-49 "/>
<polyline fill="none" stroke="black" points="310,-65 312,-67 "/>
<text text-anchor="start" x="270.5" y="-55.8" font-family="Helvetica,sans-Serif" font-size="9.00" fill="#c40b0a">@nrwl</text>
</a>
</g>
</g>
<!-- apps/home/next.config.js&#45;&gt;node_modules/@nrwl -->
<g id="edge4" class="edge">
<title>apps/home/next.config.js&#45;&gt;node_modules/@nrwl</title>
<path fill="none" stroke="#000000" stroke-opacity="0.200000" d="M117.13,-362C162.61,-362 231.5,-362 231.5,-362 231.5,-362 231.5,-63.67 231.5,-63.67 231.5,-63.67 251.94,-63.67 251.94,-63.67"/>
<polygon fill="#000000" fill-opacity="0.200000" stroke="#000000" stroke-opacity="0.200000" points="251.94,-65.77 257.94,-63.67 251.94,-61.57 251.94,-65.77"/>
</g>
<!-- apps/home/pages/_app.tsx -->
<g id="node22" class="node">
<title>apps/home/pages/_app.tsx</title>
<g id="a_node22"><a xlink:href="https://github.com/drkstr101/waweb2/blob/main/apps/home/pages/_app.tsx" xlink:title="_app.tsx">
<path fill="#bbfeff" stroke="black" d="M209,-261C209,-261 166,-261 166,-261 163,-261 160,-258 160,-255 160,-255 160,-249 160,-249 160,-246 163,-243 166,-243 166,-243 209,-243 209,-243 212,-243 215,-246 215,-249 215,-249 215,-255 215,-255 215,-258 212,-261 209,-261"/>
<text text-anchor="start" x="168" y="-249.8" font-family="Helvetica,sans-Serif" font-size="9.00">_app.tsx</text>
</a>
</g>
</g>
<!-- apps/home/pages/_app.tsx&#45;&gt;node_modules/next -->
<g id="edge6" class="edge">
<title>apps/home/pages/_app.tsx&#45;&gt;node_modules/next</title>
<path fill="none" stroke="#000000" stroke-opacity="0.200000" d="M187.5,-242.77C187.5,-218.02 187.5,-152 187.5,-152 187.5,-152 251.84,-152 251.84,-152"/>
<polygon fill="#000000" fill-opacity="0.200000" stroke="#000000" stroke-opacity="0.200000" points="251.84,-154.1 257.84,-152 251.84,-149.9 251.84,-154.1"/>
</g>
<!-- apps/home/pages/styles.css -->
<g id="node23" class="node">
<title>apps/home/pages/styles.css</title>
<g id="a_node23"><a xlink:href="https://github.com/drkstr101/waweb2/blob/main/apps/home/pages/styles.css" xlink:title="styles.css">
<path fill="#ffffcc" stroke="black" d="M308.5,-261C308.5,-261 261.5,-261 261.5,-261 258.5,-261 255.5,-258 255.5,-255 255.5,-255 255.5,-249 255.5,-249 255.5,-246 258.5,-243 261.5,-243 261.5,-243 308.5,-243 308.5,-243 311.5,-243 314.5,-246 314.5,-249 314.5,-249 314.5,-255 314.5,-255 314.5,-258 311.5,-261 308.5,-261"/>
<text text-anchor="start" x="263.5" y="-249.8" font-family="Helvetica,sans-Serif" font-size="9.00">styles.css</text>
</a>
</g>
</g>
<!-- apps/home/pages/_app.tsx&#45;&gt;apps/home/pages/styles.css -->
<g id="edge5" class="edge">
<title>apps/home/pages/_app.tsx&#45;&gt;apps/home/pages/styles.css</title>
<path fill="none" stroke="#000000" stroke-width="2" stroke-opacity="0.200000" d="M215.18,-252C215.18,-252 249.2,-252 249.2,-252"/>
<polygon fill="#000000" fill-opacity="0.200000" stroke="#000000" stroke-width="2" stroke-opacity="0.200000" points="249.2,-254.1 255.2,-252 249.2,-249.9 249.2,-254.1"/>
</g>
<!-- apps/home/pages/index.module.css -->
<g id="node24" class="node">
<title>apps/home/pages/index.module.css</title>
<g id="a_node24"><a xlink:href="https://github.com/drkstr101/waweb2/blob/main/apps/home/pages/index.module.css" xlink:title="index.module.css">
<path fill="#ffffcc" stroke="black" d="M326.5,-291C326.5,-291 243.5,-291 243.5,-291 240.5,-291 237.5,-288 237.5,-285 237.5,-285 237.5,-279 237.5,-279 237.5,-276 240.5,-273 243.5,-273 243.5,-273 326.5,-273 326.5,-273 329.5,-273 332.5,-276 332.5,-279 332.5,-279 332.5,-285 332.5,-285 332.5,-288 329.5,-291 326.5,-291"/>
<text text-anchor="start" x="245.5" y="-279.8" font-family="Helvetica,sans-Serif" font-size="9.00">index.module.css</text>
</a>
</g>
</g>
<!-- apps/home/pages/index.tsx -->
<g id="node25" class="node">
<title>apps/home/pages/index.tsx</title>
<g id="a_node25"><a xlink:href="https://github.com/drkstr101/waweb2/blob/main/apps/home/pages/index.tsx" xlink:title="index.tsx">
<path fill="#bbfeff" stroke="black" d="M210.5,-291C210.5,-291 164.5,-291 164.5,-291 161.5,-291 158.5,-288 158.5,-285 158.5,-285 158.5,-279 158.5,-279 158.5,-276 161.5,-273 164.5,-273 164.5,-273 210.5,-273 210.5,-273 213.5,-273 216.5,-276 216.5,-279 216.5,-279 216.5,-285 216.5,-285 216.5,-288 213.5,-291 210.5,-291"/>
<text text-anchor="start" x="166.5" y="-279.8" font-family="Helvetica,sans-Serif" font-size="9.00">index.tsx</text>
</a>
</g>
</g>
<!-- apps/home/pages/index.tsx&#45;&gt;apps/home/pages/index.module.css -->
<g id="edge7" class="edge">
<title>apps/home/pages/index.tsx&#45;&gt;apps/home/pages/index.module.css</title>
<path fill="none" stroke="#000000" stroke-width="2" stroke-opacity="0.200000" d="M216.75,-282C216.75,-282 231.35,-282 231.35,-282"/>
<polygon fill="#000000" fill-opacity="0.200000" stroke="#000000" stroke-width="2" stroke-opacity="0.200000" points="231.35,-284.1 237.35,-282 231.35,-279.9 231.35,-284.1"/>
</g>
<!-- apps/home/project.json -->
<g id="node26" class="node">
<title>apps/home/project.json</title>
<g id="a_node26"><a xlink:href="https://github.com/drkstr101/waweb2/blob/main/apps/home/project.json" xlink:title="project.json">
<path fill="#ccffcc" stroke="black" d="M106.5,-285C106.5,-285 49.5,-285 49.5,-285 46.5,-285 43.5,-282 43.5,-279 43.5,-279 43.5,-273 43.5,-273 43.5,-270 46.5,-267 49.5,-267 49.5,-267 106.5,-267 106.5,-267 109.5,-267 112.5,-270 112.5,-273 112.5,-273 112.5,-279 112.5,-279 112.5,-282 109.5,-285 106.5,-285"/>
<text text-anchor="start" x="51.5" y="-273.8" font-family="Helvetica,sans-Serif" font-size="9.00">project.json</text>
</a>
</g>
</g>
<!-- apps/home/specs/index.spec.tsx -->
<g id="node27" class="node">
<title>apps/home/specs/index.spec.tsx</title>
<g id="a_node27"><a xlink:href="https://github.com/drkstr101/waweb2/blob/main/apps/home/specs/index.spec.tsx" xlink:title="index.spec.tsx">
<path fill="#bbfeff" stroke="black" d="M113,-319C113,-319 43,-319 43,-319 40,-319 37,-316 37,-313 37,-313 37,-307 37,-307 37,-304 40,-301 43,-301 43,-301 113,-301 113,-301 116,-301 119,-304 119,-307 119,-307 119,-313 119,-313 119,-316 116,-319 113,-319"/>
<text text-anchor="start" x="45" y="-307.8" font-family="Helvetica,sans-Serif" font-size="9.00">index.spec.tsx</text>
</a>
</g>
</g>
<!-- apps/home/specs/index.spec.tsx&#45;&gt;apps/home/pages/index.tsx -->
<g id="edge8" class="edge">
<title>apps/home/specs/index.spec.tsx&#45;&gt;apps/home/pages/index.tsx</title>
<path fill="none" stroke="#000000" stroke-width="2" stroke-opacity="0.200000" d="M119.09,-314.5C150.16,-314.5 187.5,-314.5 187.5,-314.5 187.5,-314.5 187.5,-297.23 187.5,-297.23"/>
<polygon fill="#000000" fill-opacity="0.200000" stroke="#000000" stroke-width="2" stroke-opacity="0.200000" points="189.6,-297.23 187.5,-291.23 185.4,-297.23 189.6,-297.23"/>
</g>
<!-- node_modules/@testing&#45;library -->
<g id="node28" class="node">
<title>node_modules/@testing&#45;library</title>
<g id="a_node28"><a xlink:href="https://github.com/drkstr101/waweb2/blob/main/node_modules/@testing-library" xlink:title="@testing&#45;library">
<polygon fill="#c40b0a" fill-opacity="0.101961" stroke="black" points="329.5,-127 242.5,-127 240.5,-125 240.5,-109 327.5,-109 329.5,-111 329.5,-127"/>
<polyline fill="none" stroke="black" points="327.5,-125 240.5,-125 "/>
<polyline fill="none" stroke="black" points="327.5,-125 327.5,-109 "/>
<polyline fill="none" stroke="black" points="327.5,-125 329.5,-127 "/>
<text text-anchor="start" x="248.5" y="-115.8" font-family="Helvetica,sans-Serif" font-size="9.00" fill="#c40b0a">@testing&#45;library</text>
</a>
</g>
</g>
<!-- apps/home/specs/index.spec.tsx&#45;&gt;node_modules/@testing&#45;library -->
<g id="edge9" class="edge">
<title>apps/home/specs/index.spec.tsx&#45;&gt;node_modules/@testing&#45;library</title>
<path fill="none" stroke="#000000" stroke-opacity="0.200000" d="M119.03,-310C133.62,-310 146.5,-310 146.5,-310 146.5,-310 146.5,-118 146.5,-118 146.5,-118 234.42,-118 234.42,-118"/>
<polygon fill="#000000" fill-opacity="0.200000" stroke="#000000" stroke-opacity="0.200000" points="234.42,-120.1 240.42,-118 234.42,-115.9 234.42,-120.1"/>
</g>
<!-- node_modules/react -->
<g id="node29" class="node">
<title>node_modules/react</title>
<g id="a_node29"><a xlink:href="https://github.com/drkstr101/waweb2/blob/main/node_modules/react" xlink:title="react">
<polygon fill="#c40b0a" fill-opacity="0.101961" stroke="black" points="312,-97 260,-97 258,-95 258,-79 310,-79 312,-81 312,-97"/>
<polyline fill="none" stroke="black" points="310,-95 258,-95 "/>
<polyline fill="none" stroke="black" points="310,-95 310,-79 "/>
<polyline fill="none" stroke="black" points="310,-95 312,-97 "/>
<text text-anchor="start" x="273" y="-85.8" font-family="Helvetica,sans-Serif" font-size="9.00" fill="#c40b0a">react</text>
</a>
</g>
</g>
<!-- apps/home/specs/index.spec.tsx&#45;&gt;node_modules/react -->
<g id="edge10" class="edge">
<title>apps/home/specs/index.spec.tsx&#45;&gt;node_modules/react</title>
<path fill="none" stroke="#000000" stroke-opacity="0.200000" d="M119.21,-305.5C131.85,-305.5 142.5,-305.5 142.5,-305.5 142.5,-305.5 142.5,-88 142.5,-88 142.5,-88 251.86,-88 251.86,-88"/>
<polygon fill="#000000" fill-opacity="0.200000" stroke="#000000" stroke-opacity="0.200000" points="251.86,-90.1 257.86,-88 251.86,-85.9 251.86,-90.1"/>
</g>
<!-- apps/home/tsconfig.json -->
<g id="node30" class="node">
<title>apps/home/tsconfig.json</title>
<g id="a_node30"><a xlink:href="https://github.com/drkstr101/waweb2/blob/main/apps/home/tsconfig.json" xlink:title="tsconfig.json">
<path fill="#ccffcc" stroke="black" d="M109,-255C109,-255 47,-255 47,-255 44,-255 41,-252 41,-249 41,-249 41,-243 41,-243 41,-240 44,-237 47,-237 47,-237 109,-237 109,-237 112,-237 115,-240 115,-243 115,-243 115,-249 115,-249 115,-252 112,-255 109,-255"/>
<text text-anchor="start" x="49" y="-243.8" font-family="Helvetica,sans-Serif" font-size="9.00">tsconfig.json</text>
</a>
</g>
</g>
<!-- apps/home/tsconfig.spec.json -->
<g id="node31" class="node">
<title>apps/home/tsconfig.spec.json</title>
<g id="a_node31"><a xlink:href="https://github.com/drkstr101/waweb2/blob/main/apps/home/tsconfig.spec.json" xlink:title="tsconfig.spec.json">
<path fill="#ccffcc" stroke="black" d="M121,-225C121,-225 35,-225 35,-225 32,-225 29,-222 29,-219 29,-219 29,-213 29,-213 29,-210 32,-207 35,-207 35,-207 121,-207 121,-207 124,-207 127,-210 127,-213 127,-213 127,-219 127,-219 127,-222 124,-225 121,-225"/>
<text text-anchor="start" x="37" y="-213.8" font-family="Helvetica,sans-Serif" font-size="9.00">tsconfig.spec.json</text>
</a>
</g>
</g>
<!-- babel.config.json -->
<g id="node32" class="node">
<title>babel.config.json</title>
<g id="a_node32"><a xlink:href="https://github.com/drkstr101/waweb2/blob/main/babel.config.json" xlink:title="babel.config.json">
<path fill="#ccffcc" stroke="black" d="M119,-873C119,-873 37,-873 37,-873 34,-873 31,-870 31,-867 31,-867 31,-861 31,-861 31,-858 34,-855 37,-855 37,-855 119,-855 119,-855 122,-855 125,-858 125,-861 125,-861 125,-867 125,-867 125,-870 122,-873 119,-873"/>
<text text-anchor="middle" x="78" y="-861.8" font-family="Helvetica,sans-Serif" font-size="9.00">babel.config.json</text>
</a>
</g>
</g>
<!-- frontmatter.json -->
<g id="node33" class="node">
<title>frontmatter.json</title>
<g id="a_node33"><a xlink:href="https://github.com/drkstr101/waweb2/blob/main/frontmatter.json" xlink:title="frontmatter.json">
<path fill="#ccffcc" stroke="black" d="M116.5,-903C116.5,-903 39.5,-903 39.5,-903 36.5,-903 33.5,-900 33.5,-897 33.5,-897 33.5,-891 33.5,-891 33.5,-888 36.5,-885 39.5,-885 39.5,-885 116.5,-885 116.5,-885 119.5,-885 122.5,-888 122.5,-891 122.5,-891 122.5,-897 122.5,-897 122.5,-900 119.5,-903 116.5,-903"/>
<text text-anchor="middle" x="78" y="-891.8" font-family="Helvetica,sans-Serif" font-size="9.00">frontmatter.json</text>
</a>
</g>
</g>
<!-- jest.config.js -->
<g id="node34" class="node">
<title>jest.config.js</title>
<g id="a_node34"><a xlink:href="https://github.com/drkstr101/waweb2/blob/main/jest.config.js" xlink:title="jest.config.js">
<path fill="#ffffcc" stroke="black" d="M218.5,-75C218.5,-75 156.5,-75 156.5,-75 153.5,-75 150.5,-72 150.5,-69 150.5,-69 150.5,-63 150.5,-63 150.5,-60 153.5,-57 156.5,-57 156.5,-57 218.5,-57 218.5,-57 221.5,-57 224.5,-60 224.5,-63 224.5,-63 224.5,-69 224.5,-69 224.5,-72 221.5,-75 218.5,-75"/>
<text text-anchor="start" x="158.5" y="-63.8" font-family="Helvetica,sans-Serif" font-size="9.00">jest.config.js</text>
</a>
</g>
</g>
<!-- jest.config.js&#45;&gt;node_modules/@nrwl -->
<g id="edge11" class="edge">
<title>jest.config.js&#45;&gt;node_modules/@nrwl</title>
<path fill="none" stroke="#000000" stroke-opacity="0.200000" d="M224.64,-60.33C224.64,-60.33 251.97,-60.33 251.97,-60.33"/>
<polygon fill="#000000" fill-opacity="0.200000" stroke="#000000" stroke-opacity="0.200000" points="251.97,-62.43 257.97,-60.33 251.97,-58.23 251.97,-62.43"/>
</g>
<!-- jest.preset.js -->
<g id="node35" class="node">
<title>jest.preset.js</title>
<g id="a_node35"><a xlink:href="https://github.com/drkstr101/waweb2/blob/main/jest.preset.js" xlink:title="jest.preset.js">
<path fill="#ffffcc" stroke="black" d="M218.5,-45C218.5,-45 156.5,-45 156.5,-45 153.5,-45 150.5,-42 150.5,-39 150.5,-39 150.5,-33 150.5,-33 150.5,-30 153.5,-27 156.5,-27 156.5,-27 218.5,-27 218.5,-27 221.5,-27 224.5,-30 224.5,-33 224.5,-33 224.5,-39 224.5,-39 224.5,-42 221.5,-45 218.5,-45"/>
<text text-anchor="middle" x="187.5" y="-33.8" font-family="Helvetica,sans-Serif" font-size="9.00">jest.preset.js</text>
</a>
</g>
</g>
<!-- jest.preset.js&#45;&gt;node_modules/@nrwl -->
<g id="edge12" class="edge">
<title>jest.preset.js&#45;&gt;node_modules/@nrwl</title>
<path fill="none" stroke="#000000" stroke-opacity="0.200000" d="M224.55,-36C252.3,-36 285.5,-36 285.5,-36 285.5,-36 285.5,-42.8 285.5,-42.8"/>
<polygon fill="#000000" fill-opacity="0.200000" stroke="#000000" stroke-opacity="0.200000" points="283.4,-42.8 285.5,-48.8 287.6,-42.8 283.4,-42.8"/>
</g>
<!-- nx.json -->
<g id="node36" class="node">
<title>nx.json</title>
<g id="a_node36"><a xlink:href="https://github.com/drkstr101/waweb2/blob/main/nx.json" xlink:title="nx.json">
<path fill="#ccffcc" stroke="black" d="M99,-933C99,-933 57,-933 57,-933 54,-933 51,-930 51,-927 51,-927 51,-921 51,-921 51,-918 54,-915 57,-915 57,-915 99,-915 99,-915 102,-915 105,-918 105,-921 105,-921 105,-927 105,-927 105,-930 102,-933 99,-933"/>
<text text-anchor="middle" x="78" y="-921.8" font-family="Helvetica,sans-Serif" font-size="9.00">nx.json</text>
</a>
</g>
</g>
<!-- package.json -->
<g id="node37" class="node">
<title>package.json</title>
<g id="a_node37"><a xlink:href="https://github.com/drkstr101/waweb2/blob/main/package.json" xlink:title="package.json">
<path fill="#ccffcc" stroke="black" d="M110,-963C110,-963 46,-963 46,-963 43,-963 40,-960 40,-957 40,-957 40,-951 40,-951 40,-948 43,-945 46,-945 46,-945 110,-945 110,-945 113,-945 116,-948 116,-951 116,-951 116,-957 116,-957 116,-960 113,-963 110,-963"/>
<text text-anchor="middle" x="78" y="-951.8" font-family="Helvetica,sans-Serif" font-size="9.00">package.json</text>
</a>
</g>
</g>
<!-- tools/tsconfig.tools.json -->
<g id="node38" class="node">
<title>tools/tsconfig.tools.json</title>
<g id="a_node38"><a xlink:href="https://github.com/drkstr101/waweb2/blob/main/tools/tsconfig.tools.json" xlink:title="tsconfig.tools.json">
<path fill="#ccffcc" stroke="black" d="M121,-997C121,-997 35,-997 35,-997 32,-997 29,-994 29,-991 29,-991 29,-985 29,-985 29,-982 32,-979 35,-979 35,-979 121,-979 121,-979 124,-979 127,-982 127,-985 127,-985 127,-991 127,-991 127,-994 124,-997 121,-997"/>
<text text-anchor="start" x="37" y="-985.8" font-family="Helvetica,sans-Serif" font-size="9.00">tsconfig.tools.json</text>
</a>
</g>
</g>
<!-- tsconfig.base.json -->
<g id="node39" class="node">
<title>tsconfig.base.json</title>
<g id="a_node39"><a xlink:href="https://github.com/drkstr101/waweb2/blob/main/tsconfig.base.json" xlink:title="tsconfig.base.json">
<path fill="#ccffcc" stroke="black" d="M121,-1049C121,-1049 35,-1049 35,-1049 32,-1049 29,-1046 29,-1043 29,-1043 29,-1037 29,-1037 29,-1034 32,-1031 35,-1031 35,-1031 121,-1031 121,-1031 124,-1031 127,-1034 127,-1037 127,-1037 127,-1043 127,-1043 127,-1046 124,-1049 121,-1049"/>
<text text-anchor="middle" x="78" y="-1037.8" font-family="Helvetica,sans-Serif" font-size="9.00">tsconfig.base.json</text>
</a>
</g>
</g>
<!-- workspace.json -->
<g id="node40" class="node">
<title>workspace.json</title>
<g id="a_node40"><a xlink:href="https://github.com/drkstr101/waweb2/blob/main/workspace.json" xlink:title="workspace.json">
<path fill="#ccffcc" stroke="black" d="M115,-1079C115,-1079 41,-1079 41,-1079 38,-1079 35,-1076 35,-1073 35,-1073 35,-1067 35,-1067 35,-1064 38,-1061 41,-1061 41,-1061 115,-1061 115,-1061 118,-1061 121,-1064 121,-1067 121,-1067 121,-1073 121,-1073 121,-1076 118,-1079 115,-1079"/>
<text text-anchor="middle" x="78" y="-1067.8" font-family="Helvetica,sans-Serif" font-size="9.00">workspace.json</text>
</a>
</g>
</g>
</g>
</svg>
